HIERARCHY
ROOT Hips
{
	OFFSET 0.000000 0.000000 0.000000
	CHANNELS 6 Xposition Yposition Zposition Xrotation Yrotation Zrotation
	JOINT LeftUpLeg_virtual
	{
		OFFSET 0.000000 0.000000 0.000000
		CHANNELS 3 Xrotation Yrotation Zrotation
		JOINT LeftUpLeg
		{
			OFFSET 13.026900 -6.336304 -1.092800
			CHANNELS 3 Xrotation Yrotation Zrotation
			JOINT LeftLeg
			{
				OFFSET 0.524474 -46.096886 9.782700
				CHANNELS 3 Xrotation Yrotation Zrotation
				JOINT LeftFoot
				{
					OFFSET -0.524474 -53.427422 -12.948200
					CHANNELS 3 Xrotation Yrotation Zrotation
					JOINT LeftToeBase
					{
						OFFSET 0.192200 -14.009700 16.364100
						CHANNELS 3 Xrotation Yrotation Zrotation
						JOINT LeftToe_End
						{
							OFFSET -1.784700 -0.561700 9.474800
							CHANNELS 3 Xrotation Yrotation Zrotation
							End Site
							{
								OFFSET 0 0 0
							}
						}
					}
				}
			}
		}
	}
	JOINT RightUpLeg_virtual
	{
		OFFSET 0.000000 0.000000 0.000000
		CHANNELS 3 Xrotation Yrotation Zrotation
		JOINT RightUpLeg
		{
			OFFSET -12.883000 -6.336304 -1.092800
			CHANNELS 3 Xrotation Yrotation Zrotation
			JOINT RightLeg
			{
				OFFSET -0.524587 -46.096825 9.782800
				CHANNELS 3 Xrotation Yrotation Zrotation
				JOINT RightFoot
				{
					OFFSET 0.524587 -53.427383 -12.948300
					CHANNELS 3 Xrotation Yrotation Zrotation
					JOINT RightToeBase
					{
						OFFSET -0.192200 -14.009700 16.364100
						CHANNELS 3 Xrotation Yrotation Zrotation
						JOINT RightToe_End
						{
							OFFSET 1.784700 -0.561700 9.474800
							CHANNELS 3 Xrotation Yrotation Zrotation
							End Site
							{
								OFFSET 0 0 0
							}
						}
					}
				}
			}
		}
	}
	JOINT Spine_virtual
	{
		OFFSET 0.000000 0.000000 0.000000
		CHANNELS 3 Xrotation Yrotation Zrotation
		JOINT Spine
		{
			OFFSET 0.072000 7.257294 -0.789700
			CHANNELS 3 Xrotation Yrotation Zrotation
			JOINT Spine1
			{
				OFFSET 0.000000 12.508769 -0.658067
				CHANNELS 3 Xrotation Yrotation Zrotation
				JOINT Spine1_split
				{
					OFFSET 0.000000 12.508769 -0.658067
					CHANNELS 3 Xrotation Yrotation Zrotation
					JOINT Spine2
					{
						OFFSET 0.000000 12.508769 -0.658067
						CHANNELS 3 Xrotation Yrotation Zrotation
						JOINT Neck_virtual
						{
							OFFSET 0.000000 0.000000 0.000000
							CHANNELS 3 Xrotation Yrotation Zrotation
							JOINT Neck
							{
								OFFSET 0.000000 14.033295 7.520400
								CHANNELS 3 Xrotation Yrotation Zrotation
								JOINT Head
								{
									OFFSET 0.000000 8.198502 5.703100
									CHANNELS 3 Xrotation Yrotation Zrotation
									JOINT HeadTop_End
									{
										OFFSET 0.000000 17.760803 13.332701
										CHANNELS 3 Xrotation Yrotation Zrotation
										End Site
										{
											OFFSET 0 0 0
										}
									}
								}
							}
						}
						JOINT LeftShoulder_virtual
						{
							OFFSET 0.000000 0.000000 0.000000
							CHANNELS 3 Xrotation Yrotation Zrotation
							JOINT LeftShoulder
							{
								OFFSET 6.292450 5.785301 -0.669000
								CHANNELS 3 Xrotation Yrotation Zrotation
								JOINT LeftShoulder_split
								{
									OFFSET 6.292450 5.785301 -0.669000
									CHANNELS 3 Xrotation Yrotation Zrotation
									JOINT LeftArm
									{
										OFFSET 13.907140 -6.093903 1.965100
										CHANNELS 3 Xrotation Yrotation Zrotation
										JOINT LeftForeArm
										{
											OFFSET 34.140198 0.000000 0.000000
											CHANNELS 3 Xrotation Yrotation Zrotation
											JOINT LeftHand
											{
												OFFSET 40.960209 0.000000 0.000000
												CHANNELS 3 Xrotation Yrotation Zrotation
												End Site
												{
													OFFSET 0 0 0
												}
											}
										}
									}
								}
							}
						}
						JOINT RightShoulder_virtual
						{
							OFFSET 0.000000 0.000000 0.000000
							CHANNELS 3 Xrotation Yrotation Zrotation
							JOINT RightShoulder
							{
								OFFSET -6.292450 5.785301 -0.669000
								CHANNELS 3 Xrotation Yrotation Zrotation
								JOINT RightShoulder_split
								{
									OFFSET -6.292450 5.785301 -0.669000
									CHANNELS 3 Xrotation Yrotation Zrotation
									JOINT RightArm
									{
										OFFSET -13.907140 -6.093903 1.965100
										CHANNELS 3 Xrotation Yrotation Zrotation
										JOINT RightForeArm
										{
											OFFSET -34.140198 0.000000 0.000000
											CHANNELS 3 Xrotation Yrotation Zrotation
											JOINT RightHand
											{
												OFFSET -40.960209 0.000000 0.000000
												CHANNELS 3 Xrotation Yrotation Zrotation
												End Site
												{
													OFFSET 0 0 0
												}
											}
										}
									}
								}
							}
						}
					}
				}
			}
		}
	}
}
MOTION
Frames: 10
Frame Time: 0.03333333
-3.304971 122.828430 15.779358 0.000000 0.000000 0.000000 -18.343938 -22.257500 -5.014891 -74.999042 22.030148 38.208696 107.775700 -18.015563 -6.653155 -36.170964 -10.967073 29.892408 -36.260105 -3.138551 -4.088960 0.000000 0.000000 0.000000 -17.755232 -27.600330 -5.474324 -108.776391 -9.759904 -21.143921 115.817428 11.652489 -3.624190 -7.618113 -1.469662 0.969602 -33.194193 4.336992 4.728880 0.000000 0.000000 0.000000 -11.616275 -26.324253 -5.024517 5.507095 7.469148 -0.601418 14.063659 1.741720 -1.564222 -0.244640 -12.339645 1.717714 0.000000 0.000000 0.000000 19.656521 1.140205 -0.881771 -26.993077 -2.206974 -4.580362 -9.925504 8.802552 3.610478 0.000000 0.000000 0.000000 15.389641 1.486029 -1.119141 2.745076 -5.060733 38.711190 1.353402 -2.992338 -0.268417 -47.055410 -28.363139 -5.944911 -18.380481 -35.764735 0.533972 0.000000 0.000000 0.000000 15.202237 0.736733 -1.173994 10.598743 18.847523 -36.767089 6.462296 2.399330 -0.784592 -57.090741 21.758949 11.887323 -14.790727 38.762980 5.182179 0.000000 0.000000 0.000000 
-3.266341 121.283539 15.073502 0.000000 0.000000 0.000000 -20.194562 -22.809507 -4.945584 -77.325207 21.372318 38.001414 109.807374 -18.151762 -5.750388 -34.836366 -10.541586 28.721290 -37.028552 -3.280028 -3.784892 0.000000 0.000000 0.000000 -19.880328 -26.756861 -5.612808 -109.028739 -9.660451 -22.021580 116.398704 11.209084 -2.956672 -8.354301 -1.813735 1.462558 -35.506329 4.175498 4.881851 0.000000 0.000000 0.000000 -14.746501 -25.818455 -5.288286 5.887435 7.109160 -0.526882 13.920243 1.707279 -1.299286 0.431666 -8.422822 2.767501 0.000000 0.000000 0.000000 19.260951 0.963561 -0.660195 -25.573992 -1.839887 -4.108048 -9.476906 10.157313 3.458024 0.000000 0.000000 0.000000 15.457734 1.305594 -0.730315 2.749539 -5.238764 39.028182 -0.799342 -2.733516 0.638847 -50.195709 -27.392141 -4.704254 -18.425694 -33.535320 1.438552 0.000000 0.000000 0.000000 14.675435 0.453339 -1.131558 10.729061 20.327657 -36.479559 6.361285 -1.110473 -0.547414 -59.194634 19.512925 12.333985 -17.144005 41.842186 6.671634 0.000000 0.000000 0.000000 
-3.093188 120.056145 14.293007 0.000000 0.000000 0.000000 -22.173985 -22.617000 -4.763877 -80.136834 20.697263 37.817275 112.336210 -17.776884 -3.749930 -31.544921 -9.880906 26.288126 -38.757389 -3.459184 -3.535239 0.000000 0.000000 0.000000 -22.624221 -25.048875 -5.624178 -107.943845 -9.144657 -23.418135 117.212876 10.425404 -2.386657 -8.973367 -1.929620 1.191696 -37.282441 3.974838 5.323000 0.000000 0.000000 0.000000 -18.025093 -24.622395 -5.643770 6.245104 6.244289 -0.619010 13.268935 1.429643 -0.768052 4.407405 -5.692813 3.233741 0.000000 0.000000 0.000000 18.008077 0.744235 -0.236283 -23.989436 -1.429054 -2.961146 -9.055379 11.203307 2.662539 0.000000 0.000000 0.000000 14.432360 0.977265 -0.138821 2.901840 -5.806642 39.825955 -1.309385 -3.081711 1.394890 -54.169544 -25.034503 -6.124596 -18.262628 -33.898017 2.215285 0.000000 0.000000 0.000000 13.254681 0.128679 -0.743128 10.572615 21.600215 -36.021185 6.225965 -4.158428 0.237665 -59.294388 17.920845 11.767428 -20.220387 44.974880 7.795916 0.000000 0.000000 0.000000 
-2.582312 119.936562 13.121201 0.000000 0.000000 0.000000 -24.195587 -21.437145 -4.494241 -82.064190 20.345187 37.655260 113.343526 -16.672476 -1.893226 -27.780785 -9.062270 23.358767 -40.165733 -3.484857 -3.731485 0.000000 0.000000 0.000000 -25.542819 -22.491369 -5.469826 -105.100957 -8.403343 -24.677555 117.096695 9.566791 -2.140717 -9.335690 -1.665247 0.416242 -38.610547 3.776237 6.006062 0.000000 0.000000 0.000000 -20.973122 -23.283546 -6.120425 6.809063 5.141025 -0.726985 12.555330 1.041436 -0.164214 7.124860 -1.741334 2.066266 0.000000 0.000000 0.000000 16.431098 0.554617 0.236359 -22.795452 -1.285240 -1.302117 -8.694582 11.844235 1.446288 0.000000 0.000000 0.000000 13.175787 0.551604 0.514763 3.118167 -6.503484 40.515968 -0.615583 -3.226190 2.437380 -57.755834 -21.706553 -9.809862 -18.001993 -35.807031 2.854500 0.000000 0.000000 0.000000 11.686949 -0.125187 -0.104992 10.340024 22.643578 -35.561134 5.778452 -5.218901 0.833878 -57.519236 17.251866 11.575289 -22.919687 48.035238 8.031377 0.000000 0.000000 0.000000 
-1.986513 121.168976 11.312656 0.000000 0.000000 0.000000 -26.724855 -19.912691 -4.430765 -81.902977 19.806183 36.967132 112.206860 -15.381173 -0.278447 -23.622701 -7.877837 19.587849 -41.238777 -3.340478 -4.195332 0.000000 0.000000 0.000000 -28.499039 -19.509073 -5.211025 -100.056595 -8.011318 -25.142422 115.682709 8.698153 -2.174804 -9.001570 -1.088917 -0.635786 -40.766308 3.570332 6.840667 0.000000 0.000000 0.000000 -23.657837 -21.992854 -6.638403 7.659630 4.176262 -0.719589 12.269241 0.585681 0.368994 8.318155 1.433079 1.037069 0.000000 0.000000 0.000000 15.392110 0.395286 0.621296 -22.364623 -1.745541 0.510051 -7.997107 12.136482 0.160725 0.000000 0.000000 0.000000 12.446286 0.171514 1.037766 3.224387 -6.919970 40.600581 1.026820 -2.818574 3.837105 -60.915063 -17.810517 -15.042971 -17.961362 -37.398872 3.462426 0.000000 0.000000 0.000000 10.832437 -0.267529 0.623401 10.014405 23.351959 -35.325793 5.339538 -4.096181 1.149209 -54.848301 17.366144 12.405177 -24.103871 50.312205 6.712504 0.000000 0.000000 0.000000 
-1.387910 123.905853 9.118904 0.000000 0.000000 0.000000 -29.891459 -18.391492 -4.698052 -79.519651 18.973815 35.960557 108.866153 -14.580294 1.508888 -18.432433 -6.631038 14.565546 -43.376370 -3.165666 -4.490166 0.000000 0.000000 0.000000 -31.200605 -16.935468 -5.060627 -93.243769 -8.348217 -24.793221 112.956234 7.875673 -2.396660 -7.050212 -0.578925 -1.293676 -45.159893 3.235253 7.647551 0.000000 0.000000 0.000000 -26.643345 -20.743249 -7.072847 8.897201 3.726161 -0.495863 12.960458 0.203835 0.619259 7.957527 2.695153 0.053770 0.000000 0.000000 0.000000 15.801199 0.254322 0.733394 -22.471802 -2.815006 2.028863 -6.465528 12.839917 -0.796741 0.000000 0.000000 0.000000 13.073355 -0.118403 1.265566 3.072748 -6.744975 39.565309 2.359602 -1.085661 4.847838 -63.640329 -14.314375 -20.569528 -18.305525 -37.847536 4.185744 0.000000 0.000000 0.000000 11.481229 -0.333406 1.212719 9.555961 23.907165 -35.370674 4.291552 -1.820990 1.015261 -52.585428 17.964436 14.485469 -22.921287 51.171432 3.381432 0.000000 0.000000 0.000000 
-0.767019 127.773743 6.865959 0.000000 0.000000 0.000000 -33.122026 -16.810772 -5.150456 -74.827912 18.650323 34.775515 103.629898 -13.880755 2.740664 -12.704245 -5.471845 10.740840 -47.392227 -2.998720 -4.674927 0.000000 0.000000 0.000000 -33.666337 -14.966150 -5.137791 -85.383334 -9.707755 -23.739977 108.629692 7.091040 -2.539910 -3.354148 -0.448324 -1.101224 -51.454206 2.643544 8.286429 0.000000 0.000000 0.000000 -30.090624 -19.605399 -7.444580 10.286770 3.884141 0.105784 14.833209 0.005307 0.578711 4.474549 3.124024 -0.585491 0.000000 0.000000 0.000000 17.828518 0.155798 0.451887 -22.356756 -4.036615 2.906042 -3.887653 13.529718 -1.134753 0.000000 0.000000 0.000000 15.535704 -0.323752 1.090102 2.853877 -6.285050 37.167410 3.101038 1.044972 5.813332 -66.777646 -11.760560 -25.553193 -18.495350 -37.007017 5.462804 0.000000 0.000000 0.000000 14.000893 -0.191530 1.428148 9.199499 24.632825 -35.177499 2.894086 0.554811 0.845470 -51.823384 18.031891 17.220218 -19.670873 49.839518 -1.465673 0.000000 0.000000 0.000000 
-0.448292 132.704681 5.022633 0.000000 0.000000 0.000000 -36.048314 -15.451814 -5.731839 -68.136505 19.023441 33.295116 96.597446 -13.404602 3.828504 -6.179757 -4.227138 7.780696 -53.820443 -2.762745 -4.530338 0.000000 0.000000 0.000000 -35.694384 -13.011633 -5.200284 -76.951916 -11.925005 -22.198243 102.964979 6.274061 -2.410524 1.880439 -0.687979 0.000941 -58.199700 1.806271 8.731441 0.000000 0.000000 0.000000 -33.760689 -18.747449 -7.898648 11.442515 4.457600 0.954912 17.785090 -0.036015 0.351666 1.313895 2.639636 -0.383571 0.000000 0.000000 0.000000 21.306859 0.051658 -0.129700 -21.189526 -4.997275 2.894314 -0.367834 13.764551 -0.796802 0.000000 0.000000 0.000000 19.271329 -0.473790 0.628568 2.760409 -5.848910 33.776614 2.981567 2.147387 5.658506 -70.156780 -10.784411 -29.854337 -17.795006 -36.039425 7.488094 0.000000 0.000000 0.000000 17.979874 0.030033 1.230802 8.861680 25.820144 -34.328811 2.042384 2.140335 0.548152 -52.736751 17.671409 19.290213 -15.943697 46.618220 -6.130636 0.000000 0.000000 0.000000 
-0.491494 138.853455 2.666492 0.000000 0.000000 0.000000 -37.919066 -14.582153 -6.198155 -59.691380 20.145853 30.858805 86.643484 -12.899202 4.561762 0.023804 -2.688885 6.104521 -60.920643 -2.300247 -4.388576 0.000000 0.000000 0.000000 -36.818155 -10.625221 -4.984211 -68.405007 -14.628494 -20.409234 95.480874 5.475254 -2.059796 8.403924 -0.975597 2.139482 -63.621040 0.858435 9.013983 0.000000 0.000000 0.000000 -36.712704 -18.334459 -8.460992 11.995238 5.026159 1.736879 21.125884 -0.055765 -0.003582 -1.015239 2.247982 0.162976 0.000000 0.000000 0.000000 25.281908 -0.063659 -0.792554 -18.670419 -5.590159 2.361404 3.212256 13.643297 0.154708 0.000000 0.000000 0.000000 23.251376 -0.619087 0.057327 2.836785 -5.585723 29.647290 2.349434 1.643440 4.405577 -73.161196 -11.484108 -33.538630 -14.908959 -36.592875 10.607577 0.000000 0.000000 0.000000 22.404641 0.136732 0.739014 8.672638 27.646941 -32.564190 2.050849 2.777398 0.109579 -55.026022 17.533526 20.252182 -12.632819 43.684240 -9.406234 0.000000 0.000000 0.000000 
-0.713189 146.091751 0.199863 0.000000 0.000000 0.000000 -38.029872 -14.134949 -6.300126 -49.827606 21.424027 26.790463 72.341887 -12.213037 4.712209 5.228110 -0.398731 5.287768 -65.595860 -1.490222 -4.357215 0.000000 0.000000 0.000000 -36.646168 -8.068285 -4.445944 -59.924289 -17.405567 -18.342526 85.673009 4.721814 -1.556791 15.854469 -1.041337 5.211598 -66.094409 0.036494 9.313814 0.000000 0.000000 0.000000 -37.878279 -17.945762 -8.701185 11.646976 5.182765 2.107652 23.891739 -0.222731 -0.215621 -2.243552 2.110027 0.796332 0.000000 0.000000 0.000000 28.351540 -0.192792 -1.270906 -15.299229 -5.929747 1.637611 5.417746 12.664774 1.541325 0.000000 0.000000 0.000000 26.320265 -0.786992 -0.343309 3.122368 -5.676629 25.204021 1.687901 -0.595736 2.925944 -75.230681 -13.404392 -36.800352 -8.790025 -39.106241 15.144700 0.000000 0.000000 0.000000 25.848016 0.063105 0.380996 8.432542 29.675492 -29.231120 2.966019 3.346350 -0.739375 -57.640759 18.525947 20.633885 -9.645624 42.842252 -11.317247 0.000000 0.000000 0.000000 
